# xmcd
#
# Track frame offsets:
#	150
#	9488
#	20299
#	31541
#	44470
#	56057
#	66970
#	78925
#	87119
#	99850
#	109084
#	118520
#	128812
#	137625
#	147874
#	158548
#	167655
#	176474
#	188155
#	199031
#	211282
#	222379
#	235402
#	248345
#	260240
#	273516
#	284604
#	297132
#	309577
#	321924
#	334702
# Disc length: 4695 seconds
# Revision: 1
# Processed by: cddbd v1.5.2PL0 Copyright (c) Steve Scherf et al.
#
# Submitted via: libkcddb 0.31
#
DISCID=b712551f
DTITLE=Lester Flatt and Earl Scruggs - Anthology Bluegrass 4 and Extra's
DYEAR=1900
DGENRE=Bluegrass
TTITLE0=The Ballad Of Jed Clampett
TTITLE1=Bubbli'n In my Soul
TTITLE2=Gone Home
TTITLE3=Give Mother My Crown
TTITLE4=A Million Years In Glory
TTITLE5=Give Me Flowers While I'm Living
TTITLE6=Be Ready For Tomorrow May Never Come
TTITLE7=Pick Along
TTITLE8=Nothing to It
TTITLE9=Evelina
TTITLE10=Jazzing
TTITLE11=Liberty
TTITLE12=Tammy's Song
TTITLE13=John Hardy Was a Desperate Little Man
TTITLE14=Lonesome Ruben
TTITLE15=Spanish Two Step
TTITLE16=Careless Love
TTITLE17=Bill Cheatham
TTITLE18=Humpty Dumpty Heart
TTITLE19=Stand By Your Man
TTITLE20=King Of The Road
TTITLE21=Distant Drums
TTITLE22=the three bells
TTITLE23=sixteen tons
TTITLE24=hey, good lookin'
TTITLE25=singing the blues
TTITLE26=I'm So Lonesome I Could Cry
TTITLE27=No Letter Today
TTITLE28=Guitar Polka
TTITLE29=Sioux City Sue
TTITLE30=Blue Bayou
EXTD=CD 4 of 4
EXTT0=
EXTT1=
EXTT2=
EXTT3=
EXTT4=
EXTT5=
EXTT6=
EXTT7=
EXTT8=
EXTT9=
EXTT10=
EXTT11=
EXTT12=
EXTT13=
EXTT14=
EXTT15=
EXTT16=
EXTT17=
EXTT18=
EXTT19=
EXTT20=
EXTT21=
EXTT22=
EXTT23=
EXTT24=
EXTT25=
EXTT26=
EXTT27=
EXTT28=
EXTT29=
EXTT30=
PLAYORDER=
